<?xml version="1.0" encoding="UTF-8" standalone="no"?>
<svg
   xmlns:dc="http://purl.org/dc/elements/1.1/"
   xmlns:cc="http://creativecommons.org/ns#"
   xmlns:rdf="http://www.w3.org/1999/02/22-rdf-syntax-ns#"
   xmlns:svg="http://www.w3.org/2000/svg"
   xmlns="http://www.w3.org/2000/svg"
   xmlns:sodipodi="http://sodipodi.sourceforge.net/DTD/sodipodi-0.dtd"
   xmlns:inkscape="http://www.inkscape.org/namespaces/inkscape"
   width="150.09244mm"
   height="104.17249mm"
   viewBox="0 0 150.09244 104.17249"
   version="1.1"
   id="svg209"
   inkscape:version="1.0.1 (3bc2e813f5, 2020-09-07)"
   sodipodi:docname="vatinator.svg">
  <defs
     id="defs203" />
  <sodipodi:namedview
     id="base"
     pagecolor="#ffffff"
     bordercolor="#666666"
     borderopacity="1.0"
     inkscape:pageopacity="0"
     inkscape:pageshadow="2"
     inkscape:zoom="0.35"
     inkscape:cx="-233.89352"
     inkscape:cy="457.66019"
     inkscape:document-units="mm"
     inkscape:current-layer="layer1"
     inkscape:document-rotation="0"
     showgrid="false"
     inkscape:pagecheckerboard="true"
     fit-margin-top="0"
     fit-margin-left="0"
     fit-margin-right="0"
     fit-margin-bottom="0"
     inkscape:window-width="1496"
     inkscape:window-height="1026"
     inkscape:window-x="0"
     inkscape:window-y="0"
     inkscape:window-maximized="0" />
  <metadata
     id="metadata206">
    <rdf:RDF>
      <cc:Work
         rdf:about="">
        <dc:format>image/svg+xml</dc:format>
        <dc:type
           rdf:resource="http://purl.org/dc/dcmitype/StillImage" />
        <dc:title></dc:title>
      </cc:Work>
    </rdf:RDF>
  </metadata>
  <g
     inkscape:label="Layer 1"
     inkscape:groupmode="layer"
     id="layer1"
     transform="translate(-29.756351,-27.077408)">
    <g
       id="g1086">
      <path
         id="rect211"
         style="fill:none;fill-rule:evenodd;stroke:#217ca3;stroke-width:15.3638;stroke-miterlimit:4;stroke-dasharray:none;stroke-opacity:1"
         d="M 230.28528,383.26598 H 120.14685 v -273.24427 0 H 672.06157 V 383.26598 H 561.92121"
         transform="scale(0.26458333)" />
      <g
         id="g1049"
         transform="matrix(0.00626208,0,0,-0.00626208,71.449905,103.87033)"
         style="fill:#ffffff;fill-opacity:1;stroke:#ffffff;stroke-width:0.958148;stroke-miterlimit:4;stroke-dasharray:none;stroke-opacity:1">
        <path
           d="m 5588.4361,4557.5 c 697.4,-147.5 1256.8,-714.6 1402.4,-1419.5 30.6,-145.6 36.4,-231.8 28.7,-431 -9.6,-277.8 -40.2,-413.8 -147.5,-662.9 l -70.9,-164.8 203.1,-80.5 c 111.1,-44.1 306.5,-134.1 433,-201.2 l 229.8,-120.6 191.6,93.9 c 210.7,101.5 444.5,168.6 586.2,168.6 76.6,0 105.4,-9.6 155.2,-55.6 61.3,-53.6 63.2,-61.3 59.4,-187.7 -3.8,-176.2 -67.1,-356.3 -206.9,-590 l -34.5,-59.4 134.1,-176.3 c 197.3,-258.6 350.6,-565.2 436.8,-869.8 l 30.6,-111.1 h 185.9 c 220.3,0 295,-19.2 417.6,-101.5 120.7,-80.5 210.7,-208.8 249,-356.3 46,-180.1 32.6,-825.7 -19.2,-921.5 -59.4,-107.3 -237.5,-281.6 -442.5,-431 -191.6,-139.8 -1375.5,-885.1 -1496.2,-944.5 l -65.1,-30.7 v -561.3 c 0,-597.7 -7.7,-647.5 -93.9,-695.4 -23,-11.5 -224.1,-19.2 -513.4,-19.2 -394.6,0 -482.8,5.7 -517.3,28.7 -23,17.2 -120.7,180.1 -216.5,365.9 -137.9,262.5 -182,333.3 -206.9,325.7 -19.2,-5.7 -111.1,-23 -205,-38.3 -783.5,-132.2 -1666.7,-74.7 -2383.2,153.3 -111.1,34.5 -203.1,61.3 -206.9,59.4 -1.9,-3.8 -42.1,-185.8 -88.1,-406.1 -76.6,-358.3 -90,-404.2 -136,-444.5 -51.7,-44.1 -57.5,-44.1 -530.7,-44.1 -293.1,0 -494.3,7.7 -517.2,19.2 -90,49.8 -93.9,78.5 -93.9,931 v 798.9 l -122.6,130.3 c -321.8,339.1 -549.8,773.9 -645.6,1226.1 -78.6,367.8 -46,883.1 76.6,1205 l 34.5,92 -122.6,122.6 c -67.1,65.1 -160.9,178.2 -206.9,247.1 l -84.3,126.4 -112.99998,9.6 c -208.8,19.2 -505.8,176.2 -726.1,385.1 -124.5,116.9 -153.300004,193.5 -113,291.2 34.5,78.5 139.8,136 218.4,114.9 26.8,-5.7 95.8,-55.6 155.2,-107.3 137.9,-122.6 285.4,-222.2 387,-256.7 l 78.6,-28.7 -11.5,63.2 c -7.6,32.6 -17.2,153.3 -24.9,266.3 -19.2,327.6 36.4,530.7 187.69998,695.4 132.2,143.7 203.1,172.4 429.1,172.4 176.3,0 199.2,-3.8 295,-57.5 203.1,-113 298.8,-304.6 298.8,-603.5 0,-166.7 -5.7,-191.6 -57.5,-285.4 -113,-203.1 -272,-365.9 -551.7,-561.3 -32.6,-23 -26.8,-32.6 53.6,-120.7 82.4,-90 88.1,-93.9 111.1,-59.4 11.5,21.1 84.3,120.7 160.9,222.2 341,459.8 908,877.4 1517.3,1120.7 122.6,49.8 224.1,92 226,93.9 1.9,1.9 -28.7,80.5 -69,176.3 -116.9,274 -145.6,417.6 -143.7,726.1 0,214.6 9.6,300.8 44.1,431 187.7,705 756.7,1233.7 1465.5,1358.3 172.7,30.6 515.6,22.9 701.4,-15.4 z m -758.6,-404.2 c -247.1,-63.2 -432.9,-174.3 -639.8,-383.1 -149.4,-147.5 -199.2,-212.6 -264.4,-344.8 -191.6,-385.1 -210.7,-829.5 -51.7,-1206.9 327.6,-775.9 1222.2,-1103.5 1982.8,-724.2 224.1,111.1 492.3,375.5 607.3,599.6 195.4,381.2 224.1,775.9 82.4,1162.9 -65.1,180.1 -229.9,434.9 -352.5,547.9 -206.9,191.6 -521.1,344.8 -781.6,385.1 -159.1,24.8 -404.3,9.5 -582.5,-36.5 z m -3419.6,-2444.5 c -76.6,-69 -99.6,-183.9 -90,-438.7 5.8,-132.2 17.2,-249 28.7,-260.5 26.8,-26.8 185.8,105.4 295,249 95.8,126.4 95.8,126.4 90,254.8 -5.7,103.4 -15.3,137.9 -51.7,176.2 -68.9,74.8 -201.1,82.4 -272,19.2 z m 5021.2,-283.5 c -70.9,-67.1 -157.1,-137.9 -189.7,-157.1 -32.6,-19.2 -59.4,-40.2 -59.4,-46 0,-5.7 88.1,-34.5 197.3,-63.2 268.2,-72.8 511.5,-174.3 563.2,-233.7 65.1,-74.7 59.4,-187.7 -11.5,-260.5 -76.6,-74.7 -139.9,-72.8 -373.6,19.2 -423.4,164.8 -835.3,237.5 -1362.1,237.5 -523,0 -969.4,-80.5 -1375.5,-243.3 -92,-38.3 -199.2,-69 -235.6,-69 -149.4,0 -235.6,191.6 -141.8,312.3 46,57.5 341,178.2 597.7,245.2 93.9,24.9 168.6,47.9 168.6,55.6 0,5.7 -47.9,42.1 -103.5,82.4 -55.5,40.2 -139.9,111.1 -183.9,157.1 l -80.5,82.4 -80.5,-24.9 c -783.3,-243.4 -1507.5,-816.3 -1825.5,-1444.6 -302.7,-597.7 -277.8,-1314.2 63.2,-1885.1 93.9,-155.2 287.4,-402.3 400.4,-511.5 151.3,-145.6 143.7,-101.5 143.7,-929.1 v -739.5 l 224.1,5.7 226.1,5.7 90,438.7 c 70.9,348.7 97.7,446.4 132.2,482.8 69,72.8 143.7,74.7 304.6,11.5 599.6,-237.6 1111.1,-321.8 1839.1,-304.6 369.7,9.6 498.1,19.2 718.4,61.3 427.2,78.5 415.7,78.5 478.9,23 34.5,-28.7 126.4,-182 229.9,-385.1 l 172.4,-337.2 h 243.3 243.3 l 5.8,544.1 c 5.7,624.5 -3.8,584.3 197.3,685.8 147.6,74.8 1281.7,781.7 1517.3,946.5 99.6,69 214.6,157.1 254.8,197.3 l 76.6,72.8 v 339.1 c 0,480.8 -21.1,509.6 -383.1,509.6 -314.2,0 -413.8,78.6 -509.6,398.5 -97.7,331.4 -273.9,639.9 -515.3,900.4 -164.8,178.2 -168.6,245.2 -32.6,429.1 86.2,114.9 145.6,224.1 130.3,239.5 -11.5,13.4 -239.5,-92 -364,-170.5 -137.9,-84.3 -189.6,-78.5 -381.2,38.3 -189.7,116.9 -496.2,266.3 -712.7,346.7 -84.3,30.7 -157.1,57.5 -160.9,57.5 -3.9,1.9 -65.2,-53.7 -136,-120.7 z"
           id="path100"
           style="fill:#ffffff;fill-opacity:1;stroke:#ffffff;stroke-width:0.958148;stroke-miterlimit:4;stroke-dasharray:none;stroke-opacity:1" />
        <path
           d="m 7981.2361,82.3 c 306.5,-97.7 367.8,-523 101.5,-706.9 -111.1,-78.6 -285.4,-92 -400.4,-32.6 -105.4,51.7 -189.7,159 -216.5,272 -72.7,299 218.5,563.3 515.4,467.5 z"
           id="path104"
           style="fill:#ffffff;fill-opacity:1;stroke:#ffffff;stroke-width:0.958148;stroke-miterlimit:4;stroke-dasharray:none;stroke-opacity:1" />
        <path
           style="fill:#ffffff;fill-opacity:1;stroke:#ffffff;stroke-width:0.958148;stroke-miterlimit:4;stroke-dasharray:none;stroke-opacity:1"
           d="m 4069.5746,2806.8374 h 240.172 c -4.3669,-26.2008 -4.3669,-52.401 -4.3669,-78.6019 0,-26.2003 0,-52.4011 4.3669,-78.6014 H 4139.443 l -69.8684,-157.2034 h 266.3723 c 109.1691,-401.7415 482.5272,-707.4146 912.6526,-707.4146 237.9881,0 460.6927,93.8853 628.8131,246.7218 v 227.0711 c -144.1027,-192.137 -373.358,-316.59 -628.8131,-316.59 -349.3409,0 -648.4638,231.4385 -748.8991,550.2117 h 1063.3059 l 69.8677,157.2034 H 4466.95 c -4.3669,26.2003 -4.3669,52.4011 -4.3669,78.6014 0,21.834 0,52.4011 4.3669,78.6019 h 1235.7921 l 69.8682,157.2029 H 4499.7004 c 98.2522,314.4068 395.1919,550.2117 748.8991,550.2117 275.1058,0 484.7104,-124.4525 628.8131,-314.4063 l 69.8682,155.0197 c -174.6705,194.3207 -423.5755,316.59 -698.6813,316.59 -432.3092,0 -805.6666,-310.0399 -912.6526,-707.4151 H 4139.443 Z"
           id="path160" />
      </g>
      <text
         xml:space="preserve"
         style="font-style:normal;font-weight:normal;font-size:25.4px;line-height:1.25;font-family:sans-serif;fill:#ffffff;fill-opacity:1;stroke:none;stroke-width:0.264583"
         x="36.983852"
         y="72.237244"
         id="text1077"><tspan
           sodipodi:role="line"
           id="tspan1075"
           x="36.983852"
           y="72.237244"
           style="font-style:normal;font-variant:normal;font-weight:normal;font-stretch:normal;font-size:25.4px;font-family:'Source Code Pro';-inkscape-font-specification:'Source Code Pro';fill:#ffffff;fill-opacity:1;stroke-width:0.264583">VATinator</tspan></text>
    </g>
  </g>
</svg>
